HIERARCHY
ROOT Hips
{
	OFFSET -0.001795 -0.223333 0.028219
	CHANNELS 6 Xposition Yposition Zposition Zrotation Yrotation Xrotation 
	JOINT LeftUpLeg
	{
		OFFSET 0.069520 -0.091406 -0.006815
		CHANNELS 3 Zrotation Yrotation Xrotation
		JOINT LeftLeg
		{
			OFFSET 0.034277 -0.375199 -0.004496
			CHANNELS 3 Zrotation Yrotation Xrotation
			JOINT LeftFoot
			{
				OFFSET -0.013596 -0.397961 -0.043693
				CHANNELS 3 Zrotation Yrotation Xrotation
				JOINT LeftToe
				{
					OFFSET 0.026358 -0.055791 0.119288
					CHANNELS 3 Zrotation Yrotation Xrotation
					End Site
					{
						OFFSET 0.000000 0.000000 0.000000
					}
				}
			}
		}
	}
	JOINT RightUpLeg
	{
		OFFSET -0.067670 -0.090522 -0.004320
		CHANNELS 3 Zrotation Yrotation Xrotation
		JOINT RightLeg
		{
			OFFSET -0.038290 -0.382569 -0.008850
			CHANNELS 3 Zrotation Yrotation Xrotation
			JOINT RightFoot
			{
				OFFSET 0.015774 -0.398415 -0.042312
				CHANNELS 3 Zrotation Yrotation Xrotation
				JOINT RightToe
				{
					OFFSET -0.025372 -0.048144 0.123348
					CHANNELS 3 Zrotation Yrotation Xrotation
					End Site
					{
						OFFSET 0.000000 0.000000 0.000000
					}
				}
			}
		}
	}
	JOINT Spine
	{
		OFFSET -0.002533 0.108963 -0.026696
		CHANNELS 3 Zrotation Yrotation Xrotation
		JOINT Spine1
		{
			OFFSET 0.005487 0.135180 0.001092
			CHANNELS 3 Zrotation Yrotation Xrotation
			JOINT Spine2
			{
				OFFSET 0.001457 0.052922 0.025425
				CHANNELS 3 Zrotation Yrotation Xrotation
				JOINT Neck
				{
					OFFSET -0.002778 0.213870 -0.042857
					CHANNELS 3 Zrotation Yrotation Xrotation
					JOINT Head
					{
						OFFSET 0.005152 0.064970 0.051349
						CHANNELS 3 Zrotation Yrotation Xrotation
						End Site
						{
							OFFSET 0.000000 0.000000 0.000000
						}
					}
				}
				JOINT LeftShoulder
				{
					OFFSET 0.078845 0.121749 -0.034090
					CHANNELS 3 Zrotation Yrotation Xrotation
					JOINT LeftArm
					{
						OFFSET 0.090977 0.030469 -0.008868
						CHANNELS 3 Zrotation Yrotation Xrotation
						JOINT LeftForeArm
						{
							OFFSET 0.259612 -0.012772 -0.027456
							CHANNELS 3 Zrotation Yrotation Xrotation
							JOINT LeftHand
							{
								OFFSET 0.249234 0.008986 -0.001171
								CHANNELS 3 Zrotation Yrotation Xrotation
								End Site
								{
									OFFSET 0.000000 0.000000 0.000000
								}
							}
						}
					}
				}
				JOINT RightShoulder
				{
					OFFSET -0.081759 0.118833 -0.038615
					CHANNELS 3 Zrotation Yrotation Xrotation
					JOINT RightArm
					{
						OFFSET -0.096012 0.032551 -0.009143
						CHANNELS 3 Zrotation Yrotation Xrotation
						JOINT RightForeArm
						{
							OFFSET -0.253742 -0.013329 -0.021401
							CHANNELS 3 Zrotation Yrotation Xrotation
							JOINT RightHand
							{
								OFFSET -0.255298 0.007772 -0.005559
								CHANNELS 3 Zrotation Yrotation Xrotation
								End Site
								{
									OFFSET 0.000000 0.000000 0.000000
								}
							}
						}
					}
				}
			}
		}
	}
}
MOTION
Frames: 6
Frame Time: 0.050000
0.000000 0.954334 0.000000 -1.809074 1.859340 6.022851 4.657180 -0.338132 -3.879750 1.125840 0.141981 -5.974095 -0.059880 4.658426 11.786291 0.000000 0.000000 0.000000 -2.839817 0.544833 -5.859187 -1.317243 0.084604 -1.105242 0.889032 -2.378082 10.357721 0.000000 0.000000 0.000000 1.667354 0.099557 -2.733239 0.199922 0.062081 -4.630545 -0.189049 -0.826524 5.696486 2.647023 -0.322438 -17.383155 0.000000 0.000000 0.000000 -16.831466 -3.874496 0.367447 -54.680093 -9.280868 -2.363719 -12.319955 -23.782135 3.502232 0.000000 0.000000 0.000000 15.525013 2.313035 -0.193030 58.854171 8.267483 -1.696128 9.085051 23.933397 2.586414 0.000000 0.000000 0.000000 
-0.000474 0.952477 0.000221 -1.859585 0.699343 6.488574 4.318504 -0.322321 -3.629104 2.079169 0.115015 -6.431432 0.101622 4.522820 10.985556 0.000000 0.000000 0.000000 -3.175347 0.586800 -6.380548 -0.671378 0.031121 -0.860854 1.865255 -0.332357 9.827510 0.000000 0.000000 0.000000 1.792093 0.116544 -3.065562 -0.688192 0.419719 -4.469768 0.780644 -0.652033 5.133190 2.466836 -0.231337 -17.913123 0.000000 0.000000 0.000000 -17.005908 -3.217857 0.158524 -55.339407 -9.030012 -2.454826 -12.667142 -24.258071 3.684296 0.000000 0.000000 0.000000 14.389933 2.011272 -0.414068 60.241127 7.732622 -1.929602 9.872324 25.462075 2.891149 0.000000 0.000000 0.000000 
-0.000719 0.952035 0.000032 -1.554768 1.402854 6.467656 4.128118 -0.338883 -3.846828 2.131333 0.053466 -5.267948 -0.550979 3.168524 10.036865 0.000000 0.000000 0.000000 -3.140707 0.589288 -6.469970 -0.928834 0.097356 -0.019917 1.191810 -1.074018 8.480235 0.000000 0.000000 0.000000 1.590377 0.097826 -2.729461 -0.110981 0.216881 -5.649629 -0.010635 -1.403780 5.385510 2.376413 -0.253539 -17.364512 0.000000 0.000000 0.000000 -16.547676 -3.512086 0.388925 -55.394101 -8.699197 -2.641600 -12.408806 -24.653216 3.704859 0.000000 0.000000 0.000000 15.173779 2.783697 -0.124834 59.413694 7.518572 -2.045524 9.062914 26.935446 2.892756 0.000000 0.000000 0.000000 
-0.000840 0.951269 -0.000249 -1.697067 1.371498 6.866685 4.400662 -0.386527 -4.680672 1.938387 0.051836 -5.004582 -0.484886 3.241700 9.944616 0.000000 0.000000 0.000000 -3.227372 0.660321 -7.437131 -0.524228 0.082065 0.612424 1.120341 -1.103942 8.186585 0.000000 0.000000 0.000000 1.484155 0.107780 -2.938983 -0.589482 0.403211 -5.238559 1.080145 -2.348838 4.464091 1.482819 0.119362 -16.880299 0.000000 0.000000 0.000000 -16.563418 -2.812742 0.268285 -55.610528 -8.581213 -2.624479 -12.228232 -24.931283 3.763617 0.000000 0.000000 0.000000 14.293639 3.568113 0.063693 58.531173 7.202965 -2.087005 10.677861 28.692583 3.383573 0.000000 0.000000 0.000000 
-0.000926 0.951420 -0.000650 -1.450689 1.542164 6.672981 3.993681 -0.393011 -4.755791 2.016612 0.010638 -4.281319 -0.737340 2.717610 9.646597 0.000000 0.000000 0.000000 -3.200102 0.650379 -7.332774 -0.697535 0.121626 1.059509 0.799710 -1.534232 7.611952 0.000000 0.000000 0.000000 1.399013 0.098097 -2.733069 -0.257312 0.269805 -5.302870 0.598803 -2.719796 4.496310 1.019243 0.358248 -16.654884 0.000000 0.000000 0.000000 -16.734108 -2.787314 0.287204 -55.061006 -8.778096 -2.529094 -13.206535 -25.648258 4.118213 0.000000 0.000000 0.000000 13.686885 3.300644 -0.045418 58.257303 6.764177 -2.307283 13.809627 31.819971 4.619537 0.000000 0.000000 0.000000 
-0.000880 0.951648 -0.001125 -1.411526 1.318286 6.761239 3.758995 -0.414432 -5.100933 2.035183 -0.013431 -3.847959 -0.474037 3.106672 9.526045 0.000000 0.000000 0.000000 -3.227176 0.681800 -7.757199 -0.713466 0.137516 1.375781 0.850649 -1.413001 7.526248 0.000000 0.000000 0.000000 1.515702 0.106402 -2.906376 -0.451422 0.335787 -4.847843 0.962453 -3.061507 4.340181 0.481864 0.627728 -16.753178 0.000000 0.000000 0.000000 -17.114293 -2.547221 0.265760 -54.677985 -8.756985 -2.530671 -13.608588 -26.637565 4.419605 0.000000 0.000000 0.000000 13.087676 3.565808 0.030246 57.584114 6.788902 -2.264660 16.864494 34.824861 5.956480 0.000000 0.000000 0.000000 
